<?xml version="1.0" encoding="UTF-8" standalone="no"?>
<svg width="180" height="36" viewBox="0 0 180 36" fill="none" xmlns="http://www.w3.org/2000/svg">
  <path d="M20 8 L32 8 C36 8 40 12 40 16 L40 24 C40 28 36 32 32 32 L20 32 C16 32 12 28 12 24 L12 16 C12 12 16 8 20 8 Z" fill="white"/>
  <path d="M22 14 L30 14 C32 14 34 16 34 18 L34 22 C34 24 32 26 30 26 L22 26 C20 26 18 24 18 22 L18 18 C18 16 20 14 22 14 Z" fill="black"/>
  <text x="42" y="24" font-family="Arial, sans-serif" font-size="20" font-weight="bold" fill="white">Optima</text>
  <text x="120" y="24" font-family="Arial, sans-serif" font-size="20" font-weight="bold" fill="#3B82F6">AI</text>
</svg>
